<svg xmlns="http://www.w3.org/2000/svg" viewBox="0 0 225.46 135.59"><defs><style>.cls-1{fill:#fff;}.cls-2{fill:#d1d0d1;}</style></defs><title>Recurso 4</title><g id="Capa_2" data-name="Capa 2"><g id="logo"><rect class="cls-1" width="225.46" height="135.59"/><path class="cls-2" d="M59.92,46.89V72.57H58V60.46H35.34V72.57h-1.9V46.89h1.9V58.63H58V46.89Z"/><path class="cls-2" d="M93.26,70.77v1.8H69.08V46.89H92.89v1.76H71v9.94H89.77v1.8H71V70.77Z"/><path class="cls-2" d="M126.93,65.6c0,4.73-3.63,7-9.47,7H100.15V46.89H117.1c4.73,0,8.36,2.13,8.36,6.38a5.84,5.84,0,0,1-5.61,6C123.74,59.51,126.93,61.09,126.93,65.6Zm-24.87-7.08h14.82c3.77,0,6.64-1.5,6.64-5s-2.87-4.88-6.64-4.88H102.06Zm22.89,7c0-3.74-2.9-5.21-7.78-5.21H102.06V70.81h15.11C122.05,70.81,125,69.23,125,65.49Z"/><path class="cls-2" d="M160.78,65.6c0,4.73-3.63,7-9.46,7H134V46.89H151c4.73,0,8.36,2.13,8.36,6.38a5.84,5.84,0,0,1-5.61,6C157.59,59.51,160.78,61.09,160.78,65.6Zm-24.87-7.08h14.82c3.78,0,6.64-1.5,6.64-5s-2.86-4.88-6.64-4.88H135.91Zm22.89,7c0-3.74-2.9-5.21-7.78-5.21H135.91V70.81H151C155.9,70.81,158.8,69.23,158.8,65.49Z"/><path class="cls-2" d="M192,70.77v1.8H167.85V46.89h23.81v1.76h-21.9v9.94h18.78v1.8H169.76V70.77Z"/><path class="cls-2" d="M55,85.9l.35,0a1.18,1.18,0,0,0,.27-.06l.19-.08a.59.59,0,0,0,.17-.13l.16-.17.17-.24,3.55-5c.16-.22.21-.37.15-.44a1.29,1.29,0,0,0-.7-.13v-.12h5.34l-.84,1.77h-.15c.07-.18.12-.34.17-.46s.07-.25.1-.37a1.67,1.67,0,0,0,0-.28.46.46,0,0,0,0-.21.25.25,0,0,0-.11-.15l-.21-.09-.3,0H60.91l-2,2.82h3v.15h-3.1l-1.91,2.7c-.16.22-.21.36-.14.44s.29.11.69.13V86H55Z"/><path class="cls-2" d="M63.33,85.91a1.46,1.46,0,0,0,.49-.09,3.21,3.21,0,0,0,.45-.19,3.3,3.3,0,0,0,.53-.38c.23-.18.41-.33.53-.44l.66-.6.1-.09.09-.08.11-.1v.21l-.37.33c-.54.5-.93.83-1.16,1a3.06,3.06,0,0,1-1.29.59l-.32,0A.94.94,0,0,1,62.6,86a.5.5,0,0,1-.22-.43,1,1,0,0,1,.15-.47,6.56,6.56,0,0,1,.52-.76l1.58-2.1h.57l-1.71,2.25a6.38,6.38,0,0,0-.46.67.88.88,0,0,0-.13.43.37.37,0,0,0,.11.27A.51.51,0,0,0,63.33,85.91Zm2.93-5.83a.38.38,0,0,1,.54-.54.36.36,0,0,1,0,.54.39.39,0,0,1-.54,0Z"/><path class="cls-2" d="M64.71,86l2.91-3.82h.56l-1.06,1.39h0a3.73,3.73,0,0,1,2.46-1.52,1,1,0,0,1,.58.16.51.51,0,0,1,.22.44.93.93,0,0,1-.19.52,10,10,0,0,1-.73.87l-.42.47a3.33,3.33,0,0,0-.36.48.8.8,0,0,0-.14.46.48.48,0,0,0,.11.32.42.42,0,0,0,.33.12,1,1,0,0,0,.39-.09,2.65,2.65,0,0,0,.4-.22c.13-.09.29-.22.48-.38l.51-.48.61-.6.2-.2v.21l-.41.4-.39.39-.34.32c-.15.14-.26.24-.34.3l-.31.22a2.18,2.18,0,0,1-.31.18l-.29.1a1.17,1.17,0,0,1-.32,0,1,1,0,0,1-.6-.18.6.6,0,0,1-.25-.5,1.64,1.64,0,0,1,.53-1l.63-.69a2,2,0,0,0,.65-1.11.41.41,0,0,0-.1-.27.38.38,0,0,0-.31-.11,1.39,1.39,0,0,0-.53.12,2.45,2.45,0,0,0-.57.34,4.89,4.89,0,0,0-.55.45c-.18.16-.35.33-.53.51a20.3,20.3,0,0,0-1.59,1.84l-.37.49Z"/><path class="cls-2" d="M70.65,85.2a1.6,1.6,0,0,1,.21-.71,4,4,0,0,1,.55-.83,7,7,0,0,1,.76-.78,4.3,4.3,0,0,1,.89-.59,2,2,0,0,1,.87-.22.69.69,0,0,1,.42.11.34.34,0,0,1,.15.29.87.87,0,0,1-.28.55,3.18,3.18,0,0,1-.7.58,4.7,4.7,0,0,1-1,.47,3.38,3.38,0,0,1-1,.21,2.27,2.27,0,0,0-.26.92.74.74,0,0,0,.17.52.57.57,0,0,0,.47.19,2.45,2.45,0,0,0,.74-.13,3.76,3.76,0,0,0,.79-.38,8.78,8.78,0,0,0,.83-.61c.28-.23.6-.51,1-.85v.21l-.76.67c-.23.19-.46.36-.7.53a4.85,4.85,0,0,1-.68.42,3.91,3.91,0,0,1-.65.24,2.63,2.63,0,0,1-.67.09,1.21,1.21,0,0,1-.8-.24A.82.82,0,0,1,70.65,85.2Zm.93-1.08a3.3,3.3,0,0,0,.75-.14,3.16,3.16,0,0,0,.67-.3,2.81,2.81,0,0,0,.55-.38,1.81,1.81,0,0,0,.37-.43.78.78,0,0,0,.13-.4.19.19,0,0,0-.07-.16.24.24,0,0,0-.18-.06,1.46,1.46,0,0,0-.79.28,3.5,3.5,0,0,0-.8.7A4.5,4.5,0,0,0,71.58,84.12Z"/><path class="cls-2" d="M79.06,85.68a3.62,3.62,0,0,1-.42.33.8.8,0,0,1-.36.09A.44.44,0,0,1,78,86a.37.37,0,0,1-.12-.29,1.87,1.87,0,0,1,.12-.58l1.67-4.79a1.53,1.53,0,0,0,.09-.41.23.23,0,0,0-.16-.22,2,2,0,0,0-.52-.07v-.13H81.2v.13a2.6,2.6,0,0,0-.36,0l-.24.07a.46.46,0,0,0-.17.14,2.12,2.12,0,0,0-.11.21c0,.07-.07.17-.12.31l-1.76,5.1a.73.73,0,0,0,0,.22.11.11,0,0,0,0,.08.1.1,0,0,0,.08,0c.08,0,.21-.08.37-.25l3.24-3.2.72-2a1.53,1.53,0,0,0,.09-.41.24.24,0,0,0-.17-.22,1.87,1.87,0,0,0-.51-.07v-.13H86v.13a2.11,2.11,0,0,0-.43.06,1.45,1.45,0,0,0-.41.19,3.26,3.26,0,0,0-.5.39c-.18.17-.42.4-.72.71L82.77,82.2l-1.14,3.31a.82.82,0,0,0,0,.22.1.1,0,0,0,.11.11.3.3,0,0,0,.14,0,2.4,2.4,0,0,0,.23-.2l5.1-4.71c.41-.38.68-.63.79-.76s.17-.22.17-.29-.05-.1-.14-.13a2,2,0,0,0-.47-.06v-.13h1.87v.13a1.59,1.59,0,0,0-.77.23A16.21,16.21,0,0,0,87.36,81l0,0-5.08,4.69a2.93,2.93,0,0,1-.43.33.72.72,0,0,1-.34.09.45.45,0,0,1-.31-.1.37.37,0,0,1-.12-.29,1.66,1.66,0,0,1,.13-.58L82,82.79Zm3.85-3.91.89-.89c.08-.08.16-.17.25-.25l.2-.2.16-.16a1.58,1.58,0,0,1,.13-.13l.09-.09A.45.45,0,0,1,84.7,80a.21.21,0,0,1,0-.06l0,0v0c0-.12-.15-.18-.46-.18l-.31,0a.93.93,0,0,0-.22.08.36.36,0,0,0-.15.15,1.13,1.13,0,0,0-.12.21,3,3,0,0,0-.11.3Z"/><path class="cls-2" d="M85.72,85.2a1.6,1.6,0,0,1,.21-.71,4,4,0,0,1,.55-.83,7,7,0,0,1,.76-.78,4.58,4.58,0,0,1,.89-.59,2,2,0,0,1,.87-.22.66.66,0,0,1,.42.11.34.34,0,0,1,.15.29.87.87,0,0,1-.28.55,3.18,3.18,0,0,1-.7.58,4.86,4.86,0,0,1-1,.47,3.49,3.49,0,0,1-1,.21,2.16,2.16,0,0,0-.27.92.74.74,0,0,0,.17.52.57.57,0,0,0,.47.19,2.45,2.45,0,0,0,.74-.13,3.76,3.76,0,0,0,.79-.38,8.78,8.78,0,0,0,.83-.61c.28-.23.6-.51,1-.85v.21c-.28.26-.54.48-.76.67s-.46.36-.7.53a4.34,4.34,0,0,1-.68.42,3.61,3.61,0,0,1-.65.24,2.57,2.57,0,0,1-.67.09,1.21,1.21,0,0,1-.8-.24A.82.82,0,0,1,85.72,85.2Zm.93-1.08A3.3,3.3,0,0,0,87.4,84a3.5,3.5,0,0,0,.68-.3,3.06,3.06,0,0,0,.54-.38,1.81,1.81,0,0,0,.37-.43.78.78,0,0,0,.13-.4.19.19,0,0,0-.07-.16.24.24,0,0,0-.17-.06,1.46,1.46,0,0,0-.8.28,3.5,3.5,0,0,0-.8.7A4.5,4.5,0,0,0,86.65,84.12Z"/><path class="cls-2" d="M89.18,85.42a1.45,1.45,0,0,1,.17-.59,4.48,4.48,0,0,1,.46-.71,5.78,5.78,0,0,1,.68-.74,6.16,6.16,0,0,1,.81-.66,3.93,3.93,0,0,1,.88-.47,2.41,2.41,0,0,1,.86-.18,1.3,1.3,0,0,1,.51.08.67.67,0,0,1,.3.23l2.07-2.87h.56L93,84.32c-.23.32-.39.56-.5.75a1,1,0,0,0-.16.47.34.34,0,0,0,.12.27.48.48,0,0,0,.31.1,1.41,1.41,0,0,0,.35,0l.33-.1a2.11,2.11,0,0,0,.35-.19l.35-.23.39-.33c.17-.14.31-.26.41-.36l.48-.43.3-.28v.21l-.37.33L95,84.8l-.32.28-.31.27-.29.21a2,2,0,0,1-.29.19l-.28.15a1.6,1.6,0,0,1-.3.11,1.33,1.33,0,0,1-.3.06,1.73,1.73,0,0,1-.32,0,.86.86,0,0,1-.55-.16.52.52,0,0,1-.22-.45,1.23,1.23,0,0,1,.23-.6h0a3.11,3.11,0,0,1-2,1.21.92.92,0,0,1-.6-.2A.62.62,0,0,1,89.18,85.42Zm4.33-2.58a.3.3,0,0,1-.08-.18.55.55,0,0,0-.1-.24.5.5,0,0,0-.43-.16,1.81,1.81,0,0,0-.72.16,3.39,3.39,0,0,0-.72.44,5.24,5.24,0,0,0-.65.61,5.42,5.42,0,0,0-.54.69,4.24,4.24,0,0,0-.36.7,1.43,1.43,0,0,0-.14.59.66.66,0,0,0,0,.21.38.38,0,0,0,.12.17.39.39,0,0,0,.25.08c.42,0,1-.41,1.83-1.22a9.66,9.66,0,0,0,1-1.21Z"/><path class="cls-2" d="M94.62,85.42a1.34,1.34,0,0,1,.18-.59,3.79,3.79,0,0,1,.45-.71,5.78,5.78,0,0,1,.68-.74,7,7,0,0,1,.82-.66,3.73,3.73,0,0,1,.88-.47,2.37,2.37,0,0,1,.86-.18,1.25,1.25,0,0,1,.5.08.67.67,0,0,1,.3.23l2.08-2.87h.56l-3.5,4.81a7.35,7.35,0,0,0-.5.75.91.91,0,0,0-.16.47.37.37,0,0,0,.11.27.51.51,0,0,0,.32.1,1.48,1.48,0,0,0,.35,0l.32-.1a1.77,1.77,0,0,0,.35-.19l.35-.23A5.11,5.11,0,0,0,100,85l.41-.36.47-.43.31-.28v.21l-.37.33-.36.32-.31.28-.31.27a2.86,2.86,0,0,0-.29.21,2,2,0,0,1-.3.19l-.28.15a1.21,1.21,0,0,1-.3.11,1.36,1.36,0,0,1-.29.06,1.84,1.84,0,0,1-.33,0,.9.9,0,0,1-.55-.16.54.54,0,0,1-.21-.45,1.14,1.14,0,0,1,.23-.6h0a3.11,3.11,0,0,1-2,1.21.9.9,0,0,1-.59-.2A.6.6,0,0,1,94.62,85.42ZM99,82.84a.38.38,0,0,1-.09-.18.46.46,0,0,0-.09-.24.53.53,0,0,0-.44-.16,1.77,1.77,0,0,0-.71.16,3,3,0,0,0-.72.44,5.3,5.3,0,0,0-.66.61,5.42,5.42,0,0,0-.54.69,4.24,4.24,0,0,0-.36.7,1.61,1.61,0,0,0-.14.59.66.66,0,0,0,0,.21.34.34,0,0,0,.13.17.36.36,0,0,0,.24.08c.43,0,1-.41,1.84-1.22a11.68,11.68,0,0,0,1-1.21Z"/><path class="cls-2" d="M101.17,85.91a1.51,1.51,0,0,0,.5-.09,3.63,3.63,0,0,0,.44-.19,2.9,2.9,0,0,0,.54-.38c.23-.18.4-.33.53-.44l.66-.6.1-.09L104,84l.1-.1v.21l-.36.33c-.54.5-.93.83-1.17,1a3,3,0,0,1-1.29.59l-.31,0a1,1,0,0,1-.56-.15.53.53,0,0,1-.22-.43,1,1,0,0,1,.15-.47,8.19,8.19,0,0,1,.52-.76l1.59-2.1h.57l-1.72,2.25a6,6,0,0,0-.45.67.88.88,0,0,0-.13.43.33.33,0,0,0,.11.27A.48.48,0,0,0,101.17,85.91Zm2.94-5.83a.39.39,0,0,1,0-.54.37.37,0,0,1,.27-.11.39.39,0,0,1,.27.11.39.39,0,0,1,0,.54.39.39,0,0,1-.27.11A.37.37,0,0,1,104.11,80.08Z"/><path class="cls-2" d="M102.55,86l2.91-3.82H106L105,83.58h0a3.73,3.73,0,0,1,2.46-1.52,1,1,0,0,1,.58.16.51.51,0,0,1,.22.44.93.93,0,0,1-.19.52,10.66,10.66,0,0,1-.74.87l-.42.47a3.33,3.33,0,0,0-.36.48.88.88,0,0,0-.14.46.48.48,0,0,0,.11.32.45.45,0,0,0,.33.12,1,1,0,0,0,.39-.09,2.24,2.24,0,0,0,.4-.22,4.13,4.13,0,0,0,.48-.38l.51-.48.61-.6.2-.2v.21l-.41.4-.39.39-.34.32c-.15.14-.26.24-.34.3l-.3.22a2.21,2.21,0,0,1-.32.18l-.29.1a1.1,1.1,0,0,1-.31,0,1,1,0,0,1-.6-.18.58.58,0,0,1-.25-.5,1.62,1.62,0,0,1,.52-1l.63-.69a1.93,1.93,0,0,0,.65-1.11.36.36,0,0,0-.1-.27.37.37,0,0,0-.31-.11,1.34,1.34,0,0,0-.52.12,2.73,2.73,0,0,0-.58.34,6,6,0,0,0-.55.45c-.17.16-.35.33-.52.51a17.55,17.55,0,0,0-1.59,1.84l-.38.49Z"/><path class="cls-2" d="M107,88.1c0-.59.86-1.17,2.56-1.72l.77-.24.07-.12,1.08-1.49h0a5.11,5.11,0,0,1-1,.88,1.75,1.75,0,0,1-.94.33.92.92,0,0,1-.62-.19.58.58,0,0,1-.23-.49,1.34,1.34,0,0,1,.16-.59,3.46,3.46,0,0,1,.42-.66,4.83,4.83,0,0,1,.64-.64,5.62,5.62,0,0,1,.75-.56,4.44,4.44,0,0,1,.82-.4,2.76,2.76,0,0,1,.81-.14,1.3,1.3,0,0,1,.49.09.74.74,0,0,1,.32.23l.15-.2h.56L111,86l2.77-.9v.16l-2.91,1-.39.52c-.11.15-.24.32-.4.5a5.49,5.49,0,0,1-.43.48,5.76,5.76,0,0,1-.43.4,4.07,4.07,0,0,1-.47.33,2.22,2.22,0,0,1-.47.2,1.67,1.67,0,0,1-.49.08.9.9,0,0,1-.55-.17A.54.54,0,0,1,107,88.1Zm.43.07a.37.37,0,0,0,.11.27.45.45,0,0,0,.3.1.88.88,0,0,0,.34-.08,1.7,1.7,0,0,0,.35-.19,3,3,0,0,0,.35-.31l.35-.36.34-.42.31-.42.3-.42-.6.19q-.41.14-.72.27a4.38,4.38,0,0,0-.54.28,3.29,3.29,0,0,0-.39.27,3.24,3.24,0,0,0-.26.25,2.22,2.22,0,0,0-.15.23.69.69,0,0,0-.07.2A.78.78,0,0,0,107.45,88.17Zm1.78-3.1a.61.61,0,0,0,.08.34.34.34,0,0,0,.3.14c.44,0,1-.41,1.85-1.22l.17-.17.2-.21.19-.2.22-.26.2-.25.28-.39,0,0,0,0s0,0,0,0l0,0a.08.08,0,0,0,0,0s0,0,0,0a.11.11,0,0,0,0-.05v0a.33.33,0,0,0-.17-.23.56.56,0,0,0-.3-.07,2,2,0,0,0-.69.14,3,3,0,0,0-.68.37,4.22,4.22,0,0,0-.6.53,3.77,3.77,0,0,0-.48.61,2.62,2.62,0,0,0-.32.62A1.52,1.52,0,0,0,109.23,85.07Z"/><path class="cls-2" d="M115.68,85.9l.35,0a1.07,1.07,0,0,0,.27-.06,1.38,1.38,0,0,0,.2-.08.77.77,0,0,0,.17-.13l.15-.17a2.75,2.75,0,0,0,.17-.24l3.55-5c.17-.22.21-.36.15-.44a1.29,1.29,0,0,0-.7-.13v-.12h2.45a3.32,3.32,0,0,1,1,.13,1.54,1.54,0,0,1,.7.39.89.89,0,0,1,.26.63,1.3,1.3,0,0,1-.31.83,2.53,2.53,0,0,1-.84.64,5.15,5.15,0,0,1-1.24.42,7.14,7.14,0,0,1-1.48.15h-1.1l-1.87,2.63c-.16.22-.21.36-.14.44a1.4,1.4,0,0,0,.7.13V86h-2.42Zm3.84-3.35h1a5.54,5.54,0,0,0,1.1-.11,4.23,4.23,0,0,0,.91-.29,3.67,3.67,0,0,0,.67-.43,1.89,1.89,0,0,0,.43-.53,1.21,1.21,0,0,0,.15-.57.85.85,0,0,0-.35-.7,1.7,1.7,0,0,0-1-.26h-.8Z"/><path class="cls-2" d="M126.53,83.75a1.93,1.93,0,0,0,.65-1.11.36.36,0,0,0-.4-.38c-.54,0-1.26.47-2.18,1.42a15.88,15.88,0,0,0-1.53,1.84l-.35.49h-.57l4.71-6.5h.57l-3,4.07h0a6.51,6.51,0,0,1,1.24-1.09,2.12,2.12,0,0,1,1.2-.43,1,1,0,0,1,.59.16.52.52,0,0,1,.23.44,1,1,0,0,1-.19.52,10.36,10.36,0,0,1-.73.87l-.43.47A3.33,3.33,0,0,0,126,85a.87.87,0,0,0-.13.46.43.43,0,0,0,.11.32.41.41,0,0,0,.32.12.92.92,0,0,0,.39-.09,2.32,2.32,0,0,0,.41-.22c.13-.09.29-.22.48-.38l.51-.48.6-.6.21-.2v.21l-.42.4-.39.39c-.07.08-.19.18-.34.32s-.26.24-.33.3l-.31.22a2.21,2.21,0,0,1-.32.18,1.63,1.63,0,0,1-.29.1,1.1,1.1,0,0,1-.31,0,1,1,0,0,1-.6-.18.58.58,0,0,1-.25-.5,1.64,1.64,0,0,1,.53-1Z"/><path class="cls-2" d="M128.82,86.1a1,1,0,0,1-.64-.18.6.6,0,0,1-.23-.51,1.63,1.63,0,0,1,.15-.62,5.55,5.55,0,0,1,.42-.72,5.86,5.86,0,0,1,.62-.73,6.36,6.36,0,0,1,.75-.64,3.91,3.91,0,0,1,.82-.46,2,2,0,0,1,.81-.17,1,1,0,0,1,.64.18.62.62,0,0,1,.23.51,1.49,1.49,0,0,1-.16.61,3.77,3.77,0,0,1-.41.72,6,6,0,0,1-.63.73,6.46,6.46,0,0,1-.75.65,3.79,3.79,0,0,1-.81.45A2.13,2.13,0,0,1,128.82,86.1Zm-.28-.69a.54.54,0,0,0,.1.38.42.42,0,0,0,.32.12,1.63,1.63,0,0,0,.81-.24,2.81,2.81,0,0,0,.78-.6,4.91,4.91,0,0,0,.64-.79,3.82,3.82,0,0,0,.46-.83,2.1,2.1,0,0,0,.16-.69c0-.34-.15-.5-.44-.5a1.56,1.56,0,0,0-.67.16,2.62,2.62,0,0,0-.66.44,4.89,4.89,0,0,0-.59.61,4.79,4.79,0,0,0-.48.69,5.13,5.13,0,0,0-.32.68A2,2,0,0,0,128.54,85.41Z"/><path class="cls-2" d="M131.79,86l2.67-3.67h-1v-.15h1.12l.94-1.29h.56l-.94,1.29h1.15v.15H135L132.34,86Z"/><path class="cls-2" d="M135.89,86.1a1,1,0,0,1-.64-.18.6.6,0,0,1-.23-.51,1.63,1.63,0,0,1,.15-.62,5.55,5.55,0,0,1,.42-.72,5.86,5.86,0,0,1,.62-.73,6.36,6.36,0,0,1,.75-.64,3.91,3.91,0,0,1,.82-.46,2,2,0,0,1,.81-.17,1,1,0,0,1,.64.18.62.62,0,0,1,.23.51,1.63,1.63,0,0,1-.15.61,4.48,4.48,0,0,1-.42.72,6,6,0,0,1-.63.73,7.33,7.33,0,0,1-.74.65,4.12,4.12,0,0,1-.82.45A2.13,2.13,0,0,1,135.89,86.1Zm-.28-.69a.49.49,0,0,0,.11.38.39.39,0,0,0,.31.12,1.7,1.7,0,0,0,.82-.24,2.92,2.92,0,0,0,.77-.6,4.91,4.91,0,0,0,.64-.79,3.82,3.82,0,0,0,.46-.83,1.87,1.87,0,0,0,.16-.69c0-.34-.15-.5-.43-.5a1.57,1.57,0,0,0-.68.16,2.62,2.62,0,0,0-.66.44,4.89,4.89,0,0,0-.59.61,4.79,4.79,0,0,0-.48.69,5.13,5.13,0,0,0-.32.68A2,2,0,0,0,135.61,85.41Z"/><path class="cls-2" d="M137.87,88.1c0-.59.86-1.17,2.57-1.72l.76-.24,1.15-1.61h0a5.35,5.35,0,0,1-1,.88,1.81,1.81,0,0,1-.94.33,1,1,0,0,1-.63-.19.61.61,0,0,1-.23-.49,2.18,2.18,0,0,1,.63-1.3,5.5,5.5,0,0,1,1.49-1.23,7.34,7.34,0,0,1-1.46.13,3.45,3.45,0,0,1-1-.12v-.15a2.87,2.87,0,0,0,1,.13,6.58,6.58,0,0,0,.9-.06c.3,0,.52-.07.68-.11l.61-.15a3,3,0,0,1,.78-.13,1.3,1.3,0,0,1,.49.09.68.68,0,0,1,.32.23l.16-.2h.55L141.87,86l2.77-.9v.16l-2.91,1c-.15.2-.27.38-.39.52s-.24.32-.4.5a5.52,5.52,0,0,1-.42.48c-.13.13-.28.26-.44.4a5.12,5.12,0,0,1-.46.33,2.76,2.76,0,0,1-.47.2,1.8,1.8,0,0,1-.5.08.87.87,0,0,1-.54-.17A.52.52,0,0,1,137.87,88.1Zm.43.07a.37.37,0,0,0,.11.27.45.45,0,0,0,.3.1.93.93,0,0,0,.35-.08,1.63,1.63,0,0,0,.34-.19,3,3,0,0,0,.36-.31l.34-.36c.1-.11.21-.25.34-.42l.31-.42.3-.42-.6.19-.72.27a4.38,4.38,0,0,0-.54.28,3.12,3.12,0,0,0-.38.27,2.12,2.12,0,0,0-.26.25.9.9,0,0,0-.15.23.75.75,0,0,0-.08.2A.78.78,0,0,0,138.3,88.17Zm1.78-3.1a.62.62,0,0,0,.09.34.31.31,0,0,0,.3.14c.43,0,1-.41,1.84-1.22l.17-.17.21-.21.18-.2.22-.26a2.43,2.43,0,0,0,.2-.25l.28-.39,0,0,0,0,0,0v0s0,0,0,0,0,0,0,0a.11.11,0,0,0,0-.05v0a.35.35,0,0,0-.16-.23.6.6,0,0,0-.3-.07,2,2,0,0,0-.7.14,2.73,2.73,0,0,0-.67.37,4.22,4.22,0,0,0-.6.53,3.85,3.85,0,0,0-.49.61,3.05,3.05,0,0,0-.32.62A1.52,1.52,0,0,0,140.08,85.07Z"/><path class="cls-2" d="M148.46,82.26a1.21,1.21,0,0,0-.49.12,2.57,2.57,0,0,0-.55.34c-.19.16-.36.3-.52.45l-.52.51a21.64,21.64,0,0,0-1.59,1.84l-.38.49h-.56l2.9-3.82h.57l-1.06,1.39h0a7,7,0,0,1,1.2-1.09,2,2,0,0,1,1.09-.43.9.9,0,0,1,.48.12.37.37,0,0,1,.18.31.39.39,0,0,1-.09.26.26.26,0,0,1-.22.12c-.14,0-.22-.09-.23-.26s0-.11,0-.14a.23.23,0,0,0,0-.11.15.15,0,0,0-.06-.09A.2.2,0,0,0,148.46,82.26Z"/><path class="cls-2" d="M148.19,85.42a1.34,1.34,0,0,1,.18-.59,4.29,4.29,0,0,1,.46-.72,7.51,7.51,0,0,1,.68-.74,7,7,0,0,1,.81-.65,3.93,3.93,0,0,1,.88-.47,2.37,2.37,0,0,1,.86-.18,1.28,1.28,0,0,1,.5.09.64.64,0,0,1,.32.25l.17-.22h.56l-1.69,2.25a2.4,2.4,0,0,0-.58,1.09.33.33,0,0,0,.1.27.34.34,0,0,0,.27.11,1,1,0,0,0,.29,0,1.44,1.44,0,0,0,.31-.15l.32-.22c.1-.07.22-.18.37-.31l.39-.36.44-.42.48-.46v.21l-.47.44-.43.42-.38.36c-.14.13-.27.23-.37.31l-.34.22a1.38,1.38,0,0,1-.36.15,1.33,1.33,0,0,1-.34,0,.92.92,0,0,1-.59-.17.56.56,0,0,1-.2-.45,1.14,1.14,0,0,1,.23-.59h0a5.77,5.77,0,0,1-1,.88,1.75,1.75,0,0,1-.94.33.92.92,0,0,1-.62-.19A.59.59,0,0,1,148.19,85.42Zm.6,0a.61.61,0,0,0,.08.34.36.36,0,0,0,.31.14c.43,0,1-.41,1.84-1.22a11.87,11.87,0,0,0,1-1.21l.48-.63,0,0,0,0,0,0v0s0,0,0,0,0,0,0,0v-.1a.33.33,0,0,0-.17-.23.58.58,0,0,0-.3-.07,1.9,1.9,0,0,0-.74.16,3.56,3.56,0,0,0-.72.44,5.84,5.84,0,0,0-1.2,1.31,4.59,4.59,0,0,0-.36.69A1.58,1.58,0,0,0,148.79,85.43Z"/><path class="cls-2" d="M156.07,82.19l-.74,1h0a5.53,5.53,0,0,1,1-.85,1.76,1.76,0,0,1,.94-.3,1,1,0,0,1,.6.17.62.62,0,0,1,.23.51,1.57,1.57,0,0,1-.17.62,5.27,5.27,0,0,1-.45.72,6.31,6.31,0,0,1-.66.73,7.31,7.31,0,0,1-.76.65,3.71,3.71,0,0,1-.79.45,1.81,1.81,0,0,1-.72.18A.91.91,0,0,1,154,86a.4.4,0,0,1-.18-.32.39.39,0,0,1,.09-.26.26.26,0,0,1,.22-.1.17.17,0,0,1,.14,0,.24.24,0,0,1,.06.11s0,.09,0,.15a.7.7,0,0,0,0,.13.24.24,0,0,0,.26.18,1.25,1.25,0,0,0,.6-.17,2.82,2.82,0,0,0,.63-.43,6,6,0,0,0,.61-.62A6.55,6.55,0,0,0,157,84a3.8,3.8,0,0,0,.36-.69,1.58,1.58,0,0,0,.13-.58c0-.31-.14-.46-.41-.46s-.95.35-1.66,1.07A15.37,15.37,0,0,0,154,85l-2.61,3.6h-.56l4.66-6.42Z"/><path class="cls-2" d="M161.53,83.75a2,2,0,0,0,.65-1.11.41.41,0,0,0-.1-.27.38.38,0,0,0-.31-.11c-.54,0-1.26.47-2.18,1.42a15.88,15.88,0,0,0-1.53,1.84l-.35.49h-.57l4.71-6.5h.57l-2.95,4.07h0a6.51,6.51,0,0,1,1.24-1.09,2.17,2.17,0,0,1,1.2-.43,1,1,0,0,1,.59.16.52.52,0,0,1,.23.44.93.93,0,0,1-.19.52,8.68,8.68,0,0,1-.73.87l-.42.47A4.46,4.46,0,0,0,161,85a.87.87,0,0,0-.13.46.48.48,0,0,0,.11.32.42.42,0,0,0,.33.12,1,1,0,0,0,.39-.09,2.65,2.65,0,0,0,.4-.22c.13-.09.29-.22.48-.38l.51-.48.61-.6.2-.2v.21l-.41.4-.39.39-.34.32-.34.3-.31.22a2.18,2.18,0,0,1-.31.18l-.29.1a1.22,1.22,0,0,1-.32,0,1,1,0,0,1-.6-.18.58.58,0,0,1-.25-.5,1.64,1.64,0,0,1,.53-1Z"/><path class="cls-2" d="M164.46,83.4a2.36,2.36,0,0,1,.17-.87c.1-.23.22-.34.37-.34a.19.19,0,0,1,.2.13.56.56,0,0,1,0,.41,2.56,2.56,0,0,1-.35.63l0,2.49a9.14,9.14,0,0,0,1.27-1.59,5.63,5.63,0,0,0,.75-1.66,1.22,1.22,0,0,1,.15-.41.28.28,0,0,1,.23-.12.21.21,0,0,1,.24.23.91.91,0,0,1-.08.36,6.32,6.32,0,0,1-.78,1.4,13.38,13.38,0,0,1-2,2.22,11.45,11.45,0,0,1-2.52,1.78,5,5,0,0,1-2.15.64c-.26,0-.39-.09-.39-.25a.2.2,0,0,1,.09-.18.33.33,0,0,1,.24-.07l.21,0h.25a6.36,6.36,0,0,0,4.16-2.09l.16-.14-.22-2.07,0-.32-.54.54v-.21Z"/></g></g></svg>